PathFileType	4	(X/Y/Z)	S1_nor_fast_right.trc
DataRate	CameraRate	NumFrames	NumMarkers	Units	OrigDataRate	OrigDataStartFrame	OrigNumFrames
250.00	250.00	15	18	mm	250.00	816	6523
Frame#	Time	c7	r_should	l_should	clavicle	r_upa	r_elb_l	r_elb_m	r_low	r_wri_l	r_wri_m	r_met	l_upa	l_elb_l	l_elb_m	l_low	l_wri_l	l_wri_m	l_met
	X1	Y1	Z1	X2	Y2	Z2	X3	Y3	Z3	X4	Y4	Z4	X5	Y5	Z5	X6	Y6	Z6	X7	Y7	Z7	X8	Y8	Z8	X9	Y9	Z9	X10	Y10	Z10	X11	Y11	Z11	X12	Y12	Z12	X13	Y13	Z13	X14	Y14	Z14	X15	Y15	Z15	X16	Y16	Z16	X17	Y17	Z17	X18	Y18	Z18
816	3.26000	953.46960	1420.65259	174.64659	1022.14148	1342.89050	348.17923	1000.92938	1366.55798	-22.09249	1091.93384	1300.00244	153.68631	985.93903	1140.57678	400.72995	992.20270	1083.85083	407.56970	961.30139	1030.27844	324.78595	1091.00488	1025.95471	365.18051	1177.03259	1088.92383	370.02832	1165.63770	1073.88269	293.44260	1261.45459	1085.18738	370.26297	990.62274	1144.49854	-64.28429	994.39264	1059.38220	-78.01455	932.46222	1036.94629	2.60844	946.69617	917.38782	-87.00206	1021.69897	826.50269	-75.12667	949.72534	816.64478	-81.11320	1036.26318	747.85675	-97.81934
817	3.26400	953.52325	1420.63550	174.78871	1022.44678	1342.77185	348.21234	1000.77820	1366.59497	-22.03938	1091.97717	1300.00854	153.62845	985.98236	1140.34814	400.54529	992.25037	1083.44128	407.34750	960.94012	1030.23877	324.67545	1090.75879	1024.79614	364.40726	1177.19678	1086.86951	369.97891	1165.77844	1072.00208	293.24521	1261.68677	1082.13440	370.05856	990.50751	1144.55457	-64.32081	994.32208	1059.44348	-78.08130	932.41980	1036.96497	2.56457	946.68677	917.42853	-87.10827	1021.73291	826.57800	-75.23235	949.76141	816.69543	-81.26536	1036.03870	748.18286	-98.04823
818	3.26800	953.57990	1420.61133	174.92685	1022.76221	1342.65625	348.25308	1000.63275	1366.63184	-21.98776	1092.02222	1300.01953	153.56750	986.05029	1140.17114	400.39658	992.32050	1083.05383	407.14499	960.60962	1030.18469	324.55499	1090.42456	1023.48267	364.49313	1176.98071	1085.12817	370.35022	1165.91858	1070.14465	293.00940	1261.35583	1078.98193	370.44550	990.39478	1144.61011	-64.35516	994.25470	1059.50183	-78.13871	932.37579	1036.98291	2.53104	946.67249	917.47791	-87.20837	1021.76117	826.65509	-75.33637	949.79791	816.73840	-81.41589	1036.03882	748.32880	-98.19507
819	3.27200	953.64178	1420.58569	175.05664	1023.07727	1342.54480	348.29227	1000.48303	1366.67249	-21.93694	1092.07605	1300.03137	153.50078	986.13629	1140.00793	400.25192	992.42303	1082.67932	406.97031	960.31500	1030.13062	324.45370	1089.99512	1022.19629	365.28708	1177.15417	1083.06238	370.28198	1166.13110	1068.35486	292.70020	1260.20593	1075.80457	371.61429	990.28839	1144.66675	-64.38052	994.18378	1059.56519	-78.19703	932.33649	1036.99670	2.49798	946.65332	917.52618	-87.30262	1021.78979	826.73444	-75.44294	949.83124	816.78229	-81.56489	1036.08545	748.42834	-98.31183
820	3.27600	953.70490	1420.57544	175.19269	1023.40698	1342.42725	348.33054	1000.33191	1366.71594	-21.88866	1092.13281	1300.04382	153.42358	986.22040	1139.83862	400.09796	992.54907	1082.30359	406.80884	960.05249	1030.04858	324.36975	1089.65259	1020.89264	365.36597	1177.41638	1080.90820	370.10587	1166.34033	1066.58057	292.36646	1259.95618	1072.83813	371.71317	990.17761	1144.72461	-64.40222	994.11212	1059.62915	-78.24937	932.29865	1037.00720	2.47894	946.62994	917.57288	-87.38725	1021.81219	826.81830	-75.54673	949.85449	816.82977	-81.70576	1036.13721	748.52026	-98.43246
821	3.28000	953.76459	1420.56018	175.31633	1023.74091	1342.30884	348.37677	1000.17737	1366.76282	-21.84500	1092.18457	1300.04932	153.34775	986.31824	1139.66675	399.96280	992.68390	1081.89453	406.64902	959.81183	1029.98828	324.31094	1089.33362	1019.51740	365.27512	1177.70081	1078.72791	369.91129	1166.48145	1064.74316	292.10724	1259.82837	1069.92151	371.63483	990.06757	1144.78296	-64.42349	994.02496	1059.68726	-78.30143	932.26379	1037.01868	2.45844	946.59796	917.61920	-87.46332	1021.82129	826.90088	-75.64677	949.86163	816.88049	-81.83913	1036.17529	748.60681	-98.54906
822	3.28400	953.82581	1420.54333	175.44997	1024.07568	1342.18921	348.41846	1000.02264	1366.80994	-21.79952	1092.24194	1300.06091	153.27098	986.42346	1139.50012	399.83911	992.86829	1081.46558	406.62671	959.59009	1029.93628	324.23175	1089.10229	1017.93811	364.71964	1178.00867	1076.52637	369.69662	1166.67017	1062.91162	291.82303	1260.83704	1066.82129	370.58945	989.95319	1144.84290	-64.44073	993.92914	1059.74585	-78.35536	932.22028	1037.04358	2.44253	946.56244	917.66736	-87.53854	1021.81696	826.97308	-75.74017	949.86530	816.92932	-81.96842	1036.21155	748.67859	-98.65387
823	3.28800	953.88605	1420.53259	175.56406	1024.41504	1342.08643	348.45889	999.87720	1366.84741	-21.74476	1092.30542	1300.07214	153.19055	986.56317	1139.42737	399.74371	993.12268	1081.01331	406.74640	959.34570	1029.88843	324.14255	1088.90369	1016.21198	364.01285	1178.31592	1074.32214	369.46799	1166.77576	1061.00623	291.61453	1263.03748	1063.45032	368.58978	989.84198	1144.89343	-64.45580	993.82922	1059.80249	-78.40125	932.18494	1037.06665	2.43040	946.52594	917.71259	-87.60659	1021.80780	827.03864	-75.82809	949.86566	816.98236	-82.09238	1036.24414	748.74774	-98.75330
824	3.29200	953.94940	1420.52734	175.66624	1024.74597	1341.99426	348.49335	999.74091	1366.88977	-21.70367	1092.37085	1300.07605	153.11772	986.75177	1139.46252	399.69400	993.30957	1080.51294	406.67044	959.09833	1029.83350	324.05719	1088.49048	1014.70447	364.48438	1178.62366	1072.11609	369.27545	1166.92273	1059.09229	291.40665	1263.81079	1060.27026	367.84692	989.72961	1144.93933	-64.46815	993.73950	1059.86169	-78.44453	932.15039	1037.09155	2.41775	946.48468	917.76263	-87.67484	1021.79883	827.09680	-75.92142	949.85730	817.03949	-82.22195	1036.26904	748.82117	-98.85860
825	3.29600	954.01318	1420.51331	175.76581	1025.06689	1341.91016	348.52148	999.60632	1366.93494	-21.66295	1092.42273	1300.08740	153.04306	986.89685	1139.36426	399.60660	993.47876	1080.04504	406.55273	958.88007	1029.78516	323.95996	1088.16284	1013.06567	364.50031	1178.93030	1069.89233	369.09399	1167.05798	1057.16785	291.20322	1264.20349	1057.13074	367.38745	989.61292	1144.98242	-64.48398	993.64551	1059.92261	-78.49095	932.10956	1037.11743	2.40581	946.43311	917.81586	-87.74213	1021.78192	827.15991	-76.01882	949.84137	817.10236	-82.34445	1036.28162	748.88892	-98.96674
826	3.30000	954.07648	1420.50183	175.84967	1025.38135	1341.83289	348.53940	999.48187	1366.97595	-21.62563	1092.46997	1300.10266	152.97623	987.01965	1139.22510	399.50674	993.67535	1079.55408	406.42517	958.70355	1029.69666	323.87985	1087.87866	1011.78717	364.79013	1179.22729	1067.67273	368.91388	1167.19238	1055.23840	291.01566	1264.49304	1054.02625	367.04303	989.49506	1145.02588	-64.50567	993.54102	1059.98669	-78.54815	932.06873	1037.14539	2.39307	946.37744	917.86676	-87.80612	1021.75690	827.22552	-76.12119	949.81641	817.16418	-82.47198	1036.27698	748.96619	-99.08033
827	3.30400	954.13293	1420.49756	175.93416	1025.68335	1341.75378	348.56644	999.36261	1367.01135	-21.58730	1092.51184	1300.11316	152.90425	987.12628	1139.09937	399.41019	993.85449	1079.08081	406.29333	958.55078	1029.61987	323.79025	1087.59253	1011.05975	365.46231	1179.52307	1065.55835	368.69650	1167.38782	1053.34912	290.75818	1264.64893	1050.83447	366.31400	989.37274	1145.06567	-64.51915	993.42529	1060.05676	-78.59752	932.01843	1037.16370	2.37828	946.31494	917.91687	-87.86959	1021.72089	827.28851	-76.21160	949.78204	817.23016	-82.59797	1036.26233	749.03485	-99.19373
828	3.30800	954.19049	1420.49072	176.01071	1025.96741	1341.66870	348.59436	999.24957	1367.04016	-21.55859	1092.54956	1300.12488	152.83344	987.22278	1138.97290	399.30463	994.01227	1078.60999	406.15189	958.39746	1029.56287	323.68515	1087.26306	1009.92236	365.71426	1179.82678	1063.52515	368.41681	1167.56665	1051.45752	290.49426	1264.70581	1047.55969	365.07153	989.24420	1145.10901	-64.53370	993.30908	1060.12183	-78.65304	931.96289	1037.19116	2.36362	946.24554	917.96063	-87.93238	1021.68085	827.34814	-76.29414	949.74335	817.29218	-82.70534	1036.23938	749.10236	-99.29631
829	3.31200	954.24725	1420.48401	176.08936	1026.25391	1341.59070	348.62006	999.14270	1367.07288	-21.53285	1092.59448	1300.14294	152.76596	987.31927	1138.84717	399.20615	994.17773	1078.11340	405.99561	958.25330	1029.51306	323.59113	1086.93188	1008.73242	365.86603	1180.10669	1061.37268	368.19440	1167.78015	1049.61462	290.15414	1264.96936	1044.51648	364.59369	989.12018	1145.14380	-64.54933	993.19958	1060.18469	-78.70525	931.91205	1037.21350	2.34151	946.17346	918.01093	-87.99584	1021.63806	827.41138	-76.38277	949.69788	817.35382	-82.82030	1036.20508	749.17114	-99.39125
830	3.31600	954.30255	1420.47205	176.16328	1026.54333	1341.50977	348.64499	999.03864	1367.10901	-21.49776	1092.64233	1300.16333	152.69507	987.42657	1138.73645	399.11984	994.36353	1077.62280	405.83298	957.42920	1029.60535	323.58240	1086.61890	1007.48303	365.91669	1180.39563	1059.19250	367.99908	1168.01318	1047.78992	289.82733	1265.29309	1041.54333	364.31784	988.99951	1145.18005	-64.56921	993.08923	1060.25098	-78.76604	931.85822	1037.23706	2.31847	946.09686	918.06213	-88.05856	1021.59033	827.47919	-76.47487	949.64563	817.41602	-82.92995	1036.17517	749.24060	-99.48781
